<svg width="92" height="90" viewBox="0 0 92 90" fill="none" xmlns="http://www.w3.org/2000/svg">
<g>
<path d="M92 45C92 45 74.75 14.0625 46 14.0625C17.25 14.0625 0 45 0 45C0 45 17.25 75.9375 46 75.9375C74.75 75.9375 92 45 92 45ZM6.74475 45C9.52496 40.8663 12.7227 37.0164 16.2897 33.5081C23.69 26.2575 33.81 19.6875 46 19.6875C58.19 19.6875 68.3043 26.2575 75.716 33.5081C79.2831 37.0164 82.4808 40.8663 85.261 45C84.9275 45.4894 84.5595 46.0294 84.1398 46.62C82.2135 49.32 79.3673 52.92 75.716 56.4919C68.3043 63.7425 58.1842 70.3125 46 70.3125C33.81 70.3125 23.6958 63.7425 16.284 56.4919C12.717 52.9836 9.52499 49.1337 6.74475 45Z" fill="black"/>
<path d="M46 30.9375C42.1875 30.9375 38.5312 32.4191 35.8353 35.0563C33.1395 37.6935 31.625 41.2704 31.625 45C31.625 48.7296 33.1395 52.3065 35.8353 54.9437C38.5312 57.5809 42.1875 59.0625 46 59.0625C49.8125 59.0625 53.4688 57.5809 56.1647 54.9437C58.8605 52.3065 60.375 48.7296 60.375 45C60.375 41.2704 58.8605 37.6935 56.1647 35.0563C53.4688 32.4191 49.8125 30.9375 46 30.9375ZM25.875 45C25.875 39.7786 27.9953 34.771 31.7695 31.0788C35.5436 27.3867 40.6625 25.3125 46 25.3125C51.3375 25.3125 56.4564 27.3867 60.2305 31.0788C64.0047 34.771 66.125 39.7786 66.125 45C66.125 50.2214 64.0047 55.229 60.2305 58.9212C56.4564 62.6133 51.3375 64.6875 46 64.6875C40.6625 64.6875 35.5436 62.6133 31.7695 58.9212C27.9953 55.229 25.875 50.2214 25.875 45Z" fill="black"/>
<line x1="3" y1="-3" x2="105.507" y2="-3" transform="matrix(-0.781375 0.624061 -0.669498 -0.742814 84.7843 10.1887)" stroke="#C53B00" stroke-width="6" stroke-linecap="round"/>
</g>
</svg>
