<svg width="204" height="50" viewBox="0 0 204 50" fill="none" xmlns="http://www.w3.org/2000/svg">
<path d="M9.41532 39V11H13.7353V23H25.4953V11H29.8153V39H25.4953V26.92H13.7353V39H9.41532ZM34.1853 39V19.28H38.3053V39H34.1853ZM36.2653 16.6C35.4653 16.6 34.7853 16.3467 34.2253 15.84C33.692 15.3067 33.4253 14.6267 33.4253 13.8C33.4253 12.9733 33.692 12.3067 34.2253 11.8C34.7853 11.2667 35.4653 11 36.2653 11C37.092 11 37.772 11.2667 38.3053 11.8C38.8386 12.3067 39.1053 12.9733 39.1053 13.8C39.1053 14.6267 38.8386 15.3067 38.3053 15.84C37.772 16.3467 37.092 16.6 36.2653 16.6ZM50.9797 39.56C49.353 39.56 47.8464 39.16 46.4597 38.36C45.073 37.56 43.953 36.4133 43.0997 34.92C42.273 33.4 41.8597 31.5733 41.8597 29.44V28.84C41.8597 26.7333 42.273 24.92 43.0997 23.4C43.9264 21.88 45.033 20.72 46.4197 19.92C47.8064 19.12 49.3264 18.72 50.9797 18.72C52.2597 18.72 53.3264 18.88 54.1797 19.2C55.0597 19.52 55.7797 19.9333 56.3397 20.44C56.8997 20.92 57.3264 21.4267 57.6197 21.96H58.2597V11H62.3797V39H58.3397V36.2H57.6997C57.193 37.0533 56.4197 37.8267 55.3797 38.52C54.3664 39.2133 52.8997 39.56 50.9797 39.56ZM52.1397 35.96C53.9264 35.96 55.393 35.3867 56.5397 34.24C57.713 33.0933 58.2997 31.4533 58.2997 29.32V28.96C58.2997 26.8533 57.7264 25.2267 56.5797 24.08C55.433 22.9333 53.953 22.36 52.1397 22.36C50.3797 22.36 48.913 22.9333 47.7397 24.08C46.593 25.2267 46.0197 26.8533 46.0197 28.96V29.32C46.0197 31.4533 46.593 33.0933 47.7397 34.24C48.913 35.3867 50.3797 35.96 52.1397 35.96ZM75.8847 39.56C73.8847 39.56 72.138 39.1467 70.6447 38.32C69.1514 37.4667 67.978 36.28 67.1247 34.76C66.298 33.2133 65.8847 31.4267 65.8847 29.4V28.92C65.8847 26.8667 66.298 25.08 67.1247 23.56C67.9514 22.0133 69.098 20.8267 70.5647 20C72.058 19.1467 73.778 18.72 75.7247 18.72C77.618 18.72 79.2714 19.1467 80.6847 20C82.1247 20.8267 83.2447 21.9867 84.0447 23.48C84.8447 24.9733 85.2447 26.72 85.2447 28.72V30.28H70.0847C70.138 32.0133 70.7114 33.4 71.8047 34.44C72.9247 35.4533 74.3114 35.96 75.9647 35.96C77.5114 35.96 78.6714 35.6133 79.4447 34.92C80.2447 34.2267 80.858 33.4267 81.2847 32.52L84.6847 34.28C84.3114 35.0267 83.7647 35.8133 83.0447 36.64C82.3514 37.4667 81.4314 38.16 80.2847 38.72C79.138 39.28 77.6714 39.56 75.8847 39.56ZM70.1247 27.12H81.0447C80.938 25.6267 80.4047 24.4667 79.4447 23.64C78.4847 22.7867 77.2314 22.36 75.6847 22.36C74.138 22.36 72.8714 22.7867 71.8847 23.64C70.9247 24.4667 70.338 25.6267 70.1247 27.12ZM88.6041 39V19.28H92.6441V21.6H93.2841C93.6041 20.7733 94.1107 20.1733 94.8041 19.8C95.5241 19.4 96.4041 19.2 97.4441 19.2H99.8041V22.92H97.2841C95.9507 22.92 94.8574 23.2933 94.0041 24.04C93.1507 24.76 92.7241 25.88 92.7241 27.4V39H88.6041Z" fill="black"/>
<path d="M107.033 39L100.393 19.28H104.753L109.993 35.96H110.633L115.873 19.28H120.233L113.593 39H107.033ZM122.631 39V19.28H126.751V39H122.631ZM124.711 16.6C123.911 16.6 123.231 16.3467 122.671 15.84C122.137 15.3067 121.871 14.6267 121.871 13.8C121.871 12.9733 122.137 12.3067 122.671 11.8C123.231 11.2667 123.911 11 124.711 11C125.537 11 126.217 11.2667 126.751 11.8C127.284 12.3067 127.551 12.9733 127.551 13.8C127.551 14.6267 127.284 15.3067 126.751 15.84C126.217 16.3467 125.537 16.6 124.711 16.6ZM171.025 39L167.665 19.28H171.785L174.265 36.24H174.905L178.345 19.28H185.025L188.425 36.24H189.065L191.545 19.28H195.665L192.305 39H185.385L181.985 22.08H181.345L177.945 39H171.025Z" fill="black" fill-opacity="0.5"/>
<path d="M167 27C167 27 159.875 14.625 148 14.625C136.125 14.625 129 27 129 27C129 27 136.125 39.375 148 39.375C159.875 39.375 167 27 167 27ZM131.786 27C132.934 25.3465 134.255 23.8065 135.728 22.4032C138.785 19.503 142.965 16.875 148 16.875C153.035 16.875 157.213 19.503 160.274 22.4032C161.747 23.8065 163.068 25.3465 164.217 27C164.079 27.1957 163.927 27.4118 163.753 27.648C162.958 28.728 161.782 30.168 160.274 31.5968C157.213 34.497 153.033 37.125 148 37.125C142.965 37.125 138.787 34.497 135.726 31.5968C134.253 30.1934 132.934 28.6535 131.786 27Z" fill="black"/>
<path d="M148 21.375C146.425 21.375 144.915 21.9676 143.802 23.0225C142.688 24.0774 142.062 25.5082 142.062 27C142.062 28.4918 142.688 29.9226 143.802 30.9775C144.915 32.0324 146.425 32.625 148 32.625C149.575 32.625 151.085 32.0324 152.198 30.9775C153.312 29.9226 153.938 28.4918 153.938 27C153.938 25.5082 153.312 24.0774 152.198 23.0225C151.085 21.9676 149.575 21.375 148 21.375ZM139.688 27C139.688 24.9114 140.563 22.9084 142.122 21.4315C143.681 19.9547 145.795 19.125 148 19.125C150.205 19.125 152.319 19.9547 153.878 21.4315C155.437 22.9084 156.312 24.9114 156.312 27C156.312 29.0886 155.437 31.0916 153.878 32.5685C152.319 34.0453 150.205 34.875 148 34.875C145.795 34.875 143.681 34.0453 142.122 32.5685C140.563 31.0916 139.688 29.0886 139.688 27Z" fill="black"/>
<line x1="2" y1="-2" x2="42.2721" y2="-2" transform="matrix(-0.791009 0.611805 -0.681283 -0.73202 164.02 13.0755)" stroke="#C53B00" stroke-width="4" stroke-linecap="round"/>
</svg>
